<?xml version="1.0" encoding="utf-8"?>
<!-- Generator: Adobe Illustrator 16.0.0, SVG Export Plug-In . SVG Version: 6.00 Build 0)  -->
<!DOCTYPE svg PUBLIC "-//W3C//DTD SVG 1.1//EN" "http://www.w3.org/Graphics/SVG/1.1/DTD/svg11.dtd">
<svg version="1.1" id="Layer_1" xmlns="http://www.w3.org/2000/svg" xmlns:xlink="http://www.w3.org/1999/xlink" x="0px" y="0px"
	 width="807.678px" height="792.558px" viewBox="0 0 807.678 792.558" enable-background="new 0 0 807.678 792.558"
	 xml:space="preserve">
<g>
	<path fill="#FFFFFF" d="M754.357,251.766c-19.162-45.304-46.593-85.991-81.53-120.928C637.889,95.9,597.203,68.47,551.898,49.307
		c-46.908-19.84-96.732-29.9-148.09-29.9s-101.182,10.06-148.09,29.9c-45.304,19.163-85.99,46.593-120.928,81.531
		c-34.937,34.937-62.368,75.624-81.53,120.928c-19.841,46.908-29.901,96.732-29.901,148.09c0,51.357,10.06,101.182,29.901,148.09
		c19.162,45.305,46.593,85.99,81.53,120.928c34.938,34.938,75.624,62.369,120.928,81.53c46.908,19.841,96.733,29.9,148.09,29.9
		s101.182-10.06,148.09-29.9c45.305-19.161,85.99-46.593,120.929-81.53c34.938-34.938,62.368-75.623,81.53-120.928
		c19.841-46.908,29.9-96.732,29.9-148.09C784.258,348.498,774.198,298.674,754.357,251.766 M546.834,738.431
		c-45.297,19.159-93.418,28.873-143.025,28.873c-49.608,0-97.729-9.714-143.026-28.873c-43.754-18.507-83.052-45.002-116.8-78.75
		c-33.747-33.748-60.243-73.045-78.75-116.8c-19.158-45.297-28.873-93.417-28.873-143.025c0-49.609,9.715-97.729,28.873-143.026
		c18.507-43.754,45.003-83.052,78.75-116.8c33.748-33.747,73.046-60.243,116.8-78.75C306.08,42.121,354.2,32.407,403.809,32.407
		c49.607,0,97.729,9.714,143.025,28.873c43.756,18.507,83.053,45.003,116.801,78.75c33.748,33.748,60.242,73.046,78.75,116.8
		c19.157,45.297,28.873,93.417,28.873,143.026c0,49.608-9.716,97.729-28.873,143.025c-18.508,43.755-45.002,83.052-78.75,116.8
		S590.59,719.924,546.834,738.431"/>
</g>
<g>
	<path fill="#FFFFFF" d="M292.027,345.802c-4.36-18.363,42.537-39.248,60.396-45.297c20.11-6.811,70.011-15.104,84.932,0
		c48.811,49.412-43.444,219.017,7.549,266.173c19.449,17.985,46.295-2.631,54.734,10.38c12.59,19.415-37.117,37.971-59.084,45.24
		c-28.679,9.493-72.007,0.218-83.044-17.929c-31.269-51.409,37.444-212.329,10.956-242.47
		C341.099,330.758,296.746,365.675,292.027,345.802"/>
	<path fill="#FFFFFF" d="M458.114,206.942c0,27.623-24.715,50.015-55.205,50.015c-30.488,0-55.205-22.393-55.205-50.015
		c0-27.622,24.716-50.015,55.205-50.015C433.399,156.927,458.114,179.32,458.114,206.942"/>
</g>
</svg>
