<?xml version="1.0" encoding="utf-8"?>
<!-- Generator: Adobe Illustrator 16.0.0, SVG Export Plug-In . SVG Version: 6.00 Build 0)  -->
<!DOCTYPE svg PUBLIC "-//W3C//DTD SVG 1.1//EN" "http://www.w3.org/Graphics/SVG/1.1/DTD/svg11.dtd">
<svg version="1.1" id="Layer_1" xmlns="http://www.w3.org/2000/svg" xmlns:xlink="http://www.w3.org/1999/xlink" x="0px" y="0px"
	 width="807.678px" height="792.558px" viewBox="0 0 807.678 792.558" enable-background="new 0 0 807.678 792.558"
	 xml:space="preserve">
<g>
	<path fill="#FFFFFF" d="M754.357,251.766c-19.162-45.304-46.593-85.991-81.53-120.928C637.889,95.9,597.203,68.47,551.898,49.307
		c-46.908-19.84-96.732-29.9-148.09-29.9s-101.182,10.06-148.09,29.9c-45.304,19.163-85.99,46.593-120.928,81.531
		c-34.937,34.937-62.368,75.624-81.53,120.928c-19.841,46.908-29.901,96.732-29.901,148.09c0,51.357,10.06,101.182,29.901,148.09
		c19.162,45.305,46.593,85.99,81.53,120.928c34.938,34.938,75.624,62.369,120.928,81.53c46.908,19.841,96.733,29.9,148.09,29.9
		s101.182-10.06,148.09-29.9c45.305-19.161,85.99-46.593,120.929-81.53c34.938-34.938,62.368-75.623,81.53-120.928
		c19.841-46.908,29.9-96.732,29.9-148.09C784.258,348.498,774.198,298.674,754.357,251.766 M546.834,738.431
		c-45.297,19.159-93.418,28.873-143.025,28.873c-49.608,0-97.729-9.714-143.026-28.873c-43.754-18.507-83.052-45.002-116.8-78.75
		c-33.747-33.748-60.243-73.045-78.75-116.8c-19.158-45.297-28.873-93.417-28.873-143.025c0-49.609,9.715-97.729,28.873-143.026
		c18.507-43.754,45.003-83.052,78.75-116.8c33.748-33.747,73.046-60.243,116.8-78.75C306.08,42.121,354.2,32.407,403.809,32.407
		c49.607,0,97.729,9.714,143.025,28.873c43.756,18.507,83.053,45.003,116.801,78.75c33.748,33.748,60.242,73.046,78.75,116.8
		c19.157,45.297,28.873,93.417,28.873,143.026c0,49.608-9.716,97.729-28.873,143.025c-18.508,43.755-45.002,83.052-78.75,116.8
		S590.59,719.924,546.834,738.431"/>
	<path fill="#FFFFFF" d="M664.297,392.42c-7.915-3.427-16.769-3.942-25.3-4.112c-10.826-0.216-21.672,0.465-32.452,1.402
		c-9.939,0.865-19.853,2.018-29.74,3.355c-1.821,0.246-3.77,0.403-5.723,0.605c-0.558-22.651-3.492-45.287-9.031-67.246
		c-0.045-0.565-0.181-1.164-0.436-1.797c-0.021-0.053-0.045-0.102-0.067-0.155c-2.181-8.398-4.747-16.692-7.708-24.849
		c8.605-3.97,16.893-8.717,24.774-13.925c17.378-11.482,34.446-26.242,43.456-45.43c5.587-11.9,7.46-24.423,5.529-37.421
		c-1.132-7.612-12.696-4.377-11.572,3.19c0.246,1.65,0.4,3.28,0.479,4.891c1.69,34.359-33.288,59.912-60.874,74.413
		c-0.581,0.306-1.16,0.608-1.734,0.904c-1.458,0.751-2.93,1.478-4.406,2.191c-2.501-6.024-5.221-11.963-8.18-17.794
		c-17.004-33.506-42.433-64.146-75.69-82.442c-32.435-17.843-71.091-22.049-106.251-9.857
		c-40.377,14.001-71.883,46.029-92.654,82.611c-5.043,8.88-9.546,18.089-13.512,27.554c-0.808-0.389-1.615-0.782-2.417-1.183
		c-1.301-0.65-2.591-1.323-3.878-2.001c-4.994-2.632-9.883-5.465-14.636-8.509c-15.688-10.046-30.904-22.745-39.814-39.404
		c-4.345-8.123-6.731-17.255-6.377-26.444c0.063-1.643,0.204-3.288,0.447-4.93c1.123-7.555-10.438-10.814-11.571-3.19
		c-6.495,43.718,32.501,75.596,67.366,93.617c2.146,1.109,4.314,2.178,6.504,3.2c-10.581,28.795-16.383,59.638-17.433,90.687
		c-1.839-0.186-3.667-0.338-5.38-0.57c-9.886-1.337-19.797-2.489-29.736-3.354c-10.779-0.938-21.622-1.618-32.447-1.402
		c-8.53,0.17-17.384,0.684-25.298,4.112c-7.067,3.061-0.964,13.401,6.057,10.362c5.052-2.189,14.626-2.446,21.288-2.504
		c10.517-0.089,21.041,0.596,31.512,1.529c8.879,0.792,17.796,1.795,26.6,2.986c2.279,0.308,4.789,0.468,7.23,0.799
		c0.211,38.975,7.895,77.896,22.993,113.124c-25.418,7.724-51.215,22.51-67.025,43.666c-7.095,9.494-11.32,20.356-12.833,32.076
		c-0.987,7.637,11.023,7.564,12,0c0.282-2.188,0.708-4.313,1.25-6.387c7.259-27.791,36.803-45.382,62.543-55.095
		c1.414-0.534,2.82-1.051,4.207-1.538c1.626-0.569,3.262-1.126,4.909-1.646c1.336,2.757,2.717,5.489,4.148,8.19
		c17.655,33.346,43.91,63.712,77.941,80.972c31.413,15.93,68.085,19.29,101.557,7.85c46.551-15.91,79.637-53.127,100.516-96.818
		c2.599,0.776,5.202,1.639,7.803,2.572c19.754,7.1,39.158,18.73,52.062,34.609c4.951,6.093,8.83,13.243,10.904,20.858
		c0.576,2.113,1.021,4.26,1.301,6.432c0.976,7.553,12.988,7.649,12,0c-5.022-38.891-41.652-61.984-75.673-74.188
		c-1.154-0.414-2.316-0.816-3.48-1.212c10.96-25.934,17.843-53.638,20.878-80.213c1.135-9.932,1.746-19.908,1.914-29.899
		c2.459-0.352,5.007-0.505,7.312-0.818c8.931-1.216,17.977-2.234,26.986-3.038c10.301-0.918,20.65-1.593,30.996-1.531
		c4.455,0.026,8.944,0.15,13.372,0.678c2.607,0.311,7.211,1.296,8.439,1.827C665.255,405.819,671.373,395.484,664.297,392.42
		 M288.493,552.709c-30.978-44.008-45.593-98.799-45.166-153.266c0.367-1.129,0.368-2.316,0.044-3.425
		c0.448-23.068,3.773-51.256,9.402-68.202c18.568-55.899,100.014-69.504,121.605-62.264c28.6,9.591,10.473,295.981,19.31,352.508
		c-8.79-0.551-17.567-2.094-26.182-4.693C334.926,603.538,307.838,580.19,288.493,552.709 M535.534,516.053
		c-0.446,0.652-0.772,1.392-0.969,2.162c-15.805,34.563-39.681,64.724-72.944,83.749c-18.336,10.485-38.837,16.131-59.534,16.319
		c10.309-55.892-9.273-341.773,19.297-352.354c22.401-8.297,113.675,13.009,129.998,66.09c5.086,16.538,7.804,57.736,7.804,68.82
		C559.186,438.78,551.7,479.743,535.534,516.053"/>
</g>
</svg>
