<?xml version="1.0" encoding="utf-8"?>
<!-- Generator: Adobe Illustrator 16.0.0, SVG Export Plug-In . SVG Version: 6.00 Build 0)  -->
<!DOCTYPE svg PUBLIC "-//W3C//DTD SVG 1.1//EN" "http://www.w3.org/Graphics/SVG/1.1/DTD/svg11.dtd">
<svg version="1.1" id="Layer_1" xmlns="http://www.w3.org/2000/svg" xmlns:xlink="http://www.w3.org/1999/xlink" x="0px" y="0px"
	 width="807.678px" height="792.558px" viewBox="0 0 807.678 792.558" enable-background="new 0 0 807.678 792.558"
	 xml:space="preserve">
<g>
	<path fill="#FFFFFF" d="M754.357,251.766c-19.162-45.304-46.593-85.991-81.53-120.928C637.889,95.9,597.203,68.47,551.898,49.307
		c-46.908-19.84-96.732-29.9-148.09-29.9s-101.182,10.06-148.09,29.9c-45.304,19.163-85.99,46.593-120.928,81.531
		c-34.937,34.937-62.368,75.624-81.53,120.928c-19.841,46.908-29.901,96.732-29.901,148.09c0,51.357,10.06,101.182,29.901,148.09
		c19.162,45.305,46.593,85.99,81.53,120.928c34.938,34.938,75.624,62.369,120.928,81.53c46.908,19.841,96.733,29.9,148.09,29.9
		s101.182-10.06,148.09-29.9c45.305-19.161,85.99-46.593,120.929-81.53c34.938-34.938,62.368-75.623,81.53-120.928
		c19.841-46.908,29.9-96.732,29.9-148.09C784.258,348.498,774.198,298.674,754.357,251.766 M546.834,738.431
		c-45.297,19.159-93.418,28.873-143.025,28.873c-49.608,0-97.729-9.714-143.026-28.873c-43.754-18.507-83.052-45.002-116.8-78.75
		c-33.747-33.748-60.243-73.045-78.75-116.8c-19.158-45.297-28.873-93.417-28.873-143.025c0-49.609,9.715-97.729,28.873-143.026
		c18.507-43.754,45.003-83.052,78.75-116.8c33.748-33.747,73.046-60.243,116.8-78.75C306.08,42.121,354.2,32.407,403.809,32.407
		c49.607,0,97.729,9.714,143.025,28.873c43.756,18.507,83.053,45.003,116.801,78.75c33.748,33.748,60.242,73.046,78.75,116.8
		c19.157,45.297,28.873,93.417,28.873,143.026c0,49.608-9.716,97.729-28.873,143.025c-18.508,43.755-45.002,83.052-78.75,116.8
		S590.59,719.924,546.834,738.431"/>
</g>
<g>
	<path fill="#FFFFFF" d="M618.914,273.933c-83.546-93.029-272.982-140.665-371.211-0.516c0,0,49.426,11.338,43.743,24.023
		c-9.204,20.548-119.479,59.83-120.578,40.272c-1.099-19.559,2.831-128.818,27.946-130.457
		c11.596,13.745,18.197,41.435,18.197,41.435c106.583-156.218,314.726-124.736,419.167-4.431L618.914,273.933z"/>
	<path fill="#FFFFFF" d="M196.884,511.675c81.28,95.015,269.515,147.201,371.091,9.458c0,0-49.137-12.524-43.15-25.069
		c9.696-20.32,120.886-56.935,121.513-37.354c0.628,19.579-5.934,128.712-31.08,129.745c-11.262-14.021-17.193-41.861-17.193-41.861
		c-110.315,153.605-317.641,117.117-419.153-5.669L196.884,511.675z"/>
</g>
<g>
	<path fill="#FFFFFF" d="M495.122,523.391H333.746c0,0-7.623-93.287,0-123.329c22.309-87.918,143.691-79.092,161.376,0
		C501.878,430.276,495.122,523.391,495.122,523.391"/>
	<path fill="#FFFFFF" d="M460.475,283.167c0,26.363-21.371,47.734-47.734,47.734c-26.363,0-47.734-21.371-47.734-47.734
		c0-26.363,21.371-47.734,47.734-47.734C439.104,235.433,460.475,256.804,460.475,283.167"/>
</g>
</svg>
